<?xml version="1.0" encoding="UTF-8" standalone="no"?>
<svg
   xmlns:dc="http://purl.org/dc/elements/1.1/"
   xmlns:cc="http://creativecommons.org/ns#"
   xmlns:rdf="http://www.w3.org/1999/02/22-rdf-syntax-ns#"
   xmlns:svg="http://www.w3.org/2000/svg"
   xmlns="http://www.w3.org/2000/svg"
   xmlns:sodipodi="http://sodipodi.sourceforge.net/DTD/sodipodi-0.dtd"
   xmlns:inkscape="http://www.inkscape.org/namespaces/inkscape"
   inkscape:version="1.0 (4035a4fb49, 2020-05-01)"
   sodipodi:docname="6.svg"
   viewBox="0 0 1877.895 347.49011"
   height="347.49011"
   width="1877.895"
   xml:space="preserve"
   id="svg441"
   version="1.1"><metadata
     id="metadata447"><rdf:RDF><cc:Work
         rdf:about=""><dc:format>image/svg+xml</dc:format><dc:type
           rdf:resource="http://purl.org/dc/dcmitype/StillImage" /><dc:title></dc:title></cc:Work></rdf:RDF></metadata><defs
     id="defs445"><clipPath
       id="clipPath459"
       clipPathUnits="userSpaceOnUse"><path
         id="path457"
         d="M 0,1080 H 1920 V 0 H 0 Z" /></clipPath></defs><sodipodi:namedview
     inkscape:current-layer="g449"
     inkscape:window-maximized="1"
     inkscape:window-y="-8"
     inkscape:window-x="-8"
     inkscape:cy="173.74558"
     inkscape:cx="931.21868"
     inkscape:zoom="0.39960937"
     fit-margin-bottom="0"
     fit-margin-right="0"
     fit-margin-left="0"
     fit-margin-top="0"
     showgrid="false"
     id="namedview443"
     inkscape:window-height="1377"
     inkscape:window-width="3440"
     inkscape:pageshadow="2"
     inkscape:pageopacity="0"
     guidetolerance="10"
     gridtolerance="10"
     objecttolerance="10"
     borderopacity="1"
     bordercolor="#666666"
     pagecolor="#ffffff" /><g
     transform="matrix(1.3333333,0,0,-1.3333333,-348.78132,893.74558)"
     inkscape:label="ass-support_logo"
     inkscape:groupmode="layer"
     id="g449"><g
       id="g453"><g
         clip-path="url(#clipPath459)"
         id="g455"><g
           transform="translate(380.915,536.2386)"
           id="g461"><path
             id="path463"
             style="fill:#ef7052;fill-opacity:1;fill-rule:nonzero;stroke:none"
             d="m 0,0 c -6.854,-3.93 -14.787,-6.187 -23.253,-6.187 v 46.592 l -96.076,-166.952 h 96.076 96.077 z" /></g><g
           transform="translate(404.4951,576.8842)"
           id="g465"><path
             id="path467"
             style="fill:#4eb6f4;fill-opacity:1;fill-rule:nonzero;stroke:none"
             d="m 0,0 c 0,25.864 -20.968,46.832 -46.833,46.832 v 46.593 c -25.864,0 -46.832,-20.968 -46.832,-46.833 0,-25.864 20.968,-46.832 46.832,-46.832 L -23.58,-40.646 C -9.496,-32.57 0,-17.399 0,0" /></g><g
           transform="translate(380.915,536.2386)"
           id="g469"><path
             id="path471"
             style="fill:#000000;fill-opacity:1;fill-rule:nonzero;stroke:none"
             d="M 0,0 -23.253,40.405 V -6.187 C -14.787,-6.187 -6.854,-3.93 0,0" /></g><g
           transform="translate(795.6152,482.4593)"
           id="g473"><path
             id="path475"
             style="fill:#4eb6f4;fill-opacity:1;fill-rule:nonzero;stroke:none"
             d="M 0,0 C -2.542,0 -4.919,-0.687 -6.971,-1.867 -2.808,-4.261 0,-8.72 0,-13.84 c 0,-5.119 -2.808,-9.579 -6.971,-11.972 2.052,-1.18 4.429,-1.867 6.971,-1.867 7.7,0 13.941,6.196 13.941,13.839 C 13.941,-6.196 7.7,0 0,0" /></g><g
           transform="translate(781.6738,468.6195)"
           id="g477"><path
             id="path479"
             style="fill:#ef7052;fill-opacity:1;fill-rule:nonzero;stroke:none"
             d="M 0,0 C 0,5.12 2.808,9.579 6.971,11.973 4.918,13.153 2.542,13.84 0,13.84 -7.7,13.84 -13.942,7.644 -13.942,0 c 0,-7.644 6.242,-13.839 13.942,-13.839 2.542,0 4.918,0.687 6.971,1.866 C 2.808,-9.579 0,-5.119 0,0" /></g><g
           transform="translate(795.6152,468.6195)"
           id="g481"><path
             id="path483"
             style="fill:#000000;fill-opacity:1;fill-rule:nonzero;stroke:none"
             d="M 0,0 C 0,5.12 -2.808,9.579 -6.971,11.973 -11.134,9.579 -13.941,5.12 -13.941,0 c 0,-5.119 2.807,-9.579 6.97,-11.973 C -2.808,-9.579 0,-5.119 0,0" /></g><g
           transform="translate(737.5663,476.8128)"
           id="g485"><path
             id="path487"
             style="fill:#ffffff;fill-opacity:1;fill-rule:nonzero;stroke:none"
             d="m 0,0 c -3.707,2.973 -8.112,5.547 -13.216,7.728 -5.103,2.177 -10.679,4.257 -16.722,6.24 -3.137,1.019 -5.889,1.967 -8.254,2.844 -2.368,0.877 -4.35,1.811 -5.946,2.802 -1.596,0.99 -2.795,2.066 -3.592,3.227 -0.799,1.159 -1.198,2.533 -1.198,4.118 0,1.584 0.37,2.93 1.113,4.033 0.74,1.104 1.738,1.995 2.993,2.675 1.254,0.679 2.708,1.174 4.362,1.486 1.653,0.31 3.422,0.466 5.304,0.466 1.824,0 3.621,-0.268 5.388,-0.806 1.768,-0.539 3.451,-1.217 5.047,-2.038 1.596,-0.821 3.093,-1.741 4.492,-2.759 1.396,-1.02 2.665,-2.01 3.806,-2.972 l 0.77,-0.68 c 0.647,-0.551 1.236,-1.008 1.791,-1.41 l 2.929,-2.238 4.423,4.694 0.006,0.007 11.209,11.854 c 0.132,0.141 0.252,0.277 0.372,0.414 L 8.85,43.68 3.657,48.381 c -0.316,0.299 -0.649,0.601 -1.006,0.909 -1.312,1.132 -2.837,2.306 -4.576,3.524 -1.74,1.217 -3.579,2.391 -5.516,3.524 -4.62,2.547 -9.311,4.4 -14.072,5.561 -4.761,1.16 -9.738,1.741 -14.926,1.741 -6.901,0 -13.145,-0.834 -18.733,-2.503 -5.59,-1.67 -10.365,-4.031 -14.328,-7.084 -3.964,-3.054 -7.014,-6.731 -9.152,-11.029 -2.139,-4.298 -3.208,-9.079 -3.208,-14.337 0,-4.978 0.855,-9.489 2.566,-13.534 1.711,-4.043 4.277,-7.749 7.698,-11.113 3.422,-3.364 7.7,-6.419 12.831,-9.162 5.132,-2.744 11.12,-5.304 17.963,-7.678 1.54,-0.51 3.364,-1.145 5.475,-1.909 2.109,-0.764 4.134,-1.682 6.073,-2.757 1.938,-1.074 3.578,-2.305 4.918,-3.69 1.34,-1.386 2.011,-2.955 2.011,-4.707 0,-1.584 -0.243,-3.084 -0.728,-4.498 -0.485,-1.415 -1.298,-2.658 -2.437,-3.733 -1.142,-1.074 -2.695,-1.937 -4.662,-2.588 -1.967,-0.649 -4.406,-0.975 -7.314,-0.975 -3.137,0 -6.131,0.538 -8.981,1.613 -2.852,1.075 -5.731,2.575 -8.64,4.501 -1.938,1.301 -3.664,2.617 -5.175,3.948 -1.511,1.329 -2.752,2.391 -3.72,3.184 l -3.842,3.357 -21.007,-19.75 3.395,-3.418 c 0.025,-0.026 0.044,-0.05 0.069,-0.078 0.011,-0.01 0.021,-0.013 0.032,-0.023 l 0.304,-0.306 c 0.002,-0.005 0.005,-0.006 0.007,-0.011 0.004,-0.005 0.009,-0.006 0.014,-0.01 l 0.327,-0.329 0.257,-0.257 c 0.911,-0.966 2.152,-2.243 3.721,-3.831 1.567,-1.59 3.492,-3.208 5.773,-4.856 5.475,-3.917 11.377,-7.04 17.707,-9.367 6.329,-2.326 12.773,-3.49 19.331,-3.49 6.957,0 13.458,0.976 19.503,2.928 6.044,1.954 11.305,4.713 15.783,8.28 4.475,3.565 7.997,7.881 10.563,12.948 2.566,5.065 3.85,10.711 3.85,16.939 0,5.887 -1.042,10.897 -3.122,15.029 C 6.6,-6.524 3.706,-2.972 0,0" /></g><g
           transform="translate(580.5136,458.2865)"
           id="g489"><path
             id="path491"
             style="fill:#ffffff;fill-opacity:1;fill-rule:nonzero;stroke:none"
             d="m 0,0 h -13.183 c 1.083,2.887 2.181,5.987 3.293,9.298 1.113,3.311 2.21,6.665 3.294,10.061 1.082,3.396 2.181,6.764 3.293,10.104 1.112,3.34 2.209,6.453 3.293,9.341 L 0,38.774 0.01,38.804 C 1.094,35.916 2.191,32.803 3.303,29.463 4.415,26.123 5.514,22.755 6.596,19.359 7.68,15.963 8.777,12.609 9.89,9.298 11.002,5.987 12.1,2.887 13.183,0 Z m 62.041,-44.291 c -0.008,0.019 -0.009,0.034 -0.016,0.054 L 16.739,72.158 h 0.009 l -0.939,2.393 -0.231,0.594 c -0.002,0.001 -0.002,0.001 -0.003,0.002 l -1.299,3.309 H 10.959 6.387 0 h -6.388 -4.571 -3.317 l -1.299,-3.309 c -0.001,-0.001 -0.002,-0.001 -0.003,-0.002 l -0.232,-0.594 -0.938,-2.393 h 0.008 L -62.025,-44.237 c -0.008,-0.02 -0.009,-0.035 -0.016,-0.054 l -1.299,-3.343 h 4.395 25.233 3.148 l 1.104,2.881 c 0.035,0.089 0.077,0.168 0.11,0.26 1.083,2.888 2.182,5.761 3.293,8.619 1.113,2.857 2.21,5.732 3.293,8.619 H 0 22.764 c 1.083,-2.887 2.18,-5.762 3.293,-8.619 1.111,-2.858 2.21,-5.731 3.293,-8.619 0.032,-0.092 0.074,-0.171 0.109,-0.26 l 1.104,-2.881 h 3.149 25.233 4.394 z" /></g><g
           transform="translate(915.998,476.8119)"
           id="g493"><path
             id="path495"
             style="fill:#ffffff;fill-opacity:1;fill-rule:nonzero;stroke:none"
             d="m 0,0 c -3.708,2.973 -8.113,5.547 -13.216,7.728 -5.104,2.177 -10.679,4.258 -16.722,6.24 -3.137,1.019 -5.889,1.967 -8.255,2.844 -2.368,0.877 -4.349,1.811 -5.945,2.802 -1.597,0.99 -2.795,2.066 -3.592,3.227 -0.8,1.159 -1.199,2.533 -1.199,4.118 0,1.584 0.371,2.93 1.113,4.033 0.74,1.104 1.739,1.995 2.994,2.675 1.254,0.679 2.708,1.174 4.362,1.486 1.653,0.31 3.422,0.466 5.304,0.466 1.824,0 3.62,-0.268 5.388,-0.806 1.767,-0.539 3.45,-1.217 5.047,-2.038 1.596,-0.821 3.093,-1.741 4.491,-2.759 1.396,-1.02 2.665,-2.01 3.806,-2.972 l 0.77,-0.68 c 0.647,-0.552 1.236,-1.008 1.791,-1.41 l 2.93,-2.238 4.422,4.694 0.006,0.007 11.209,11.855 c 0.133,0.14 0.252,0.276 0.372,0.413 l 3.773,3.995 -5.193,4.701 c -0.316,0.299 -0.648,0.601 -1.005,0.91 -1.312,1.131 -2.838,2.305 -4.576,3.523 -1.74,1.217 -3.579,2.391 -5.517,3.524 -4.62,2.547 -9.311,4.4 -14.072,5.561 -4.761,1.16 -9.737,1.741 -14.925,1.741 -6.901,0 -13.146,-0.834 -18.734,-2.503 -5.589,-1.67 -10.364,-4.031 -14.327,-7.084 -3.964,-3.054 -7.015,-6.731 -9.152,-11.029 -2.139,-4.298 -3.208,-9.079 -3.208,-14.337 0,-4.978 0.855,-9.489 2.566,-13.534 1.71,-4.043 4.276,-7.749 7.698,-11.113 3.421,-3.364 7.699,-6.419 12.831,-9.162 5.132,-2.744 11.119,-5.303 17.963,-7.677 1.539,-0.511 3.364,-1.146 5.474,-1.91 2.109,-0.764 4.135,-1.682 6.073,-2.757 1.939,-1.074 3.578,-2.305 4.919,-3.69 1.339,-1.386 2.01,-2.955 2.01,-4.707 0,-1.584 -0.243,-3.084 -0.727,-4.498 -0.485,-1.415 -1.298,-2.658 -2.438,-3.733 -1.141,-1.074 -2.695,-1.937 -4.661,-2.588 -1.968,-0.649 -4.406,-0.975 -7.314,-0.975 -3.137,0 -6.131,0.538 -8.981,1.613 -2.853,1.075 -5.732,2.575 -8.64,4.501 -1.939,1.301 -3.665,2.617 -5.175,3.948 -1.511,1.329 -2.752,2.391 -3.721,3.184 l -3.842,3.357 -21.007,-19.75 3.395,-3.418 c 0.025,-0.026 0.045,-0.05 0.07,-0.077 0.01,-0.011 0.02,-0.014 0.031,-0.024 l 0.305,-0.306 c 0.002,-0.005 0.004,-0.007 0.006,-0.011 0.004,-0.005 0.009,-0.006 0.014,-0.01 l 0.327,-0.329 0.257,-0.257 c 0.912,-0.966 2.153,-2.243 3.721,-3.831 1.568,-1.59 3.493,-3.208 5.774,-4.855 5.475,-3.918 11.376,-7.041 17.706,-9.368 6.33,-2.326 12.774,-3.49 19.332,-3.49 6.957,0 13.457,0.976 19.502,2.928 6.044,1.954 11.305,4.713 15.783,8.28 4.476,3.565 7.998,7.881 10.564,12.948 2.566,5.065 3.849,10.712 3.849,16.939 0,5.887 -1.041,10.897 -3.122,15.029 C 6.6,-6.524 3.706,-2.972 0,0" /></g><g
           transform="translate(1142.7139,491.3744)"
           id="g497"><path
             id="path499"
             style="fill:#ffffff;fill-opacity:1;fill-rule:nonzero;stroke:none"
             d="m 0,0 c -0.599,-1.698 -1.454,-3.199 -2.566,-4.501 -1.112,-1.303 -2.496,-2.363 -4.149,-3.184 -1.654,-0.821 -3.507,-1.23 -5.559,-1.23 h -18.135 v 28.358 h 18.135 c 2.052,0 3.891,-0.423 5.516,-1.273 1.626,-0.849 3.008,-1.94 4.15,-3.269 C -1.469,13.57 -0.599,12.058 0,10.358 0.599,8.66 0.898,6.962 0.898,5.264 0.898,3.452 0.599,1.698 0,0 m 29.425,24.964 c -1.625,3.056 -3.607,5.9 -5.945,8.532 -2.338,2.633 -4.96,4.897 -7.87,6.793 -2.908,1.896 -6.102,3.382 -9.58,4.458 -3.478,1.074 -7.184,1.613 -11.12,1.613 h -36.831 -17.827 -3.764 V 42.454 28.258 -67.8 v -8.279 -3.65 h 3.764 25.404 3.935 v 3.65 8.279 32.139 H -4.49 c 5.816,0.055 11.119,1.258 15.909,3.607 4.791,2.349 8.896,5.42 12.318,9.213 3.421,3.791 6.059,8.122 7.912,12.991 1.853,4.869 2.78,9.85 2.78,14.944 0,3.452 -0.427,6.863 -1.283,10.232 -0.855,3.367 -2.095,6.58 -3.721,9.638" /></g><g
           transform="translate(1257.5908,491.3744)"
           id="g501"><path
             id="path503"
             style="fill:#ffffff;fill-opacity:1;fill-rule:nonzero;stroke:none"
             d="m 0,0 c -0.6,-1.698 -1.454,-3.199 -2.566,-4.501 -1.113,-1.303 -2.496,-2.363 -4.149,-3.184 -1.655,-0.821 -3.508,-1.23 -5.56,-1.23 h -18.134 v 28.358 h 18.134 c 2.052,0 3.892,-0.423 5.517,-1.273 1.625,-0.849 3.007,-1.94 4.149,-3.269 C -1.47,13.57 -0.6,12.058 0,10.358 0.599,8.66 0.897,6.962 0.897,5.264 0.897,3.452 0.599,1.698 0,0 m 29.425,24.964 c -1.625,3.056 -3.608,5.9 -5.946,8.532 -2.338,2.633 -4.96,4.897 -7.869,6.793 -2.908,1.896 -6.102,3.382 -9.58,4.458 -3.479,1.074 -7.185,1.613 -11.12,1.613 h -36.832 -17.827 -3.764 V 42.454 28.258 -67.8 v -8.279 -3.65 h 3.764 25.405 3.935 v 3.643 0.007 40.418 h 25.918 c 5.816,0.055 11.12,1.258 15.91,3.607 4.79,2.349 8.895,5.42 12.317,9.213 3.422,3.791 6.059,8.122 7.912,12.991 1.853,4.869 2.781,9.85 2.781,14.944 0,3.452 -0.428,6.863 -1.283,10.232 -0.856,3.367 -2.096,6.58 -3.721,9.638" /></g><g
           transform="translate(1400.0557,461.4867)"
           id="g505"><path
             id="path507"
             style="fill:#ffffff;fill-opacity:1;fill-rule:nonzero;stroke:none"
             d="m 0,0 c -1.595,-4.076 -3.829,-7.629 -6.705,-10.656 -2.877,-3.03 -6.294,-5.406 -10.252,-7.133 -3.958,-1.728 -8.301,-2.59 -13.026,-2.59 -4.728,0 -9.056,0.862 -12.986,2.59 -3.928,1.727 -7.332,4.103 -10.208,7.133 -2.876,3.027 -5.112,6.58 -6.707,10.656 -1.594,4.075 -2.39,8.462 -2.39,13.16 0,4.642 0.796,9.014 2.39,13.118 1.595,4.104 3.831,7.685 6.707,10.742 2.876,3.057 6.28,5.461 10.208,7.217 3.93,1.754 8.258,2.632 12.986,2.632 4.725,0 9.068,-0.878 13.026,-2.632 3.958,-1.756 7.375,-4.16 10.252,-7.217 C -3.829,33.963 -1.595,30.382 0,26.278 1.595,22.174 2.393,17.802 2.393,13.16 2.393,8.462 1.595,4.075 0,0 m 26.552,45.894 c -2.825,4.838 -6.236,9.239 -10.229,13.202 -3.995,3.962 -8.418,7.345 -13.267,10.146 -4.851,2.803 -10.073,4.982 -15.665,6.539 -5.592,1.556 -11.384,2.335 -17.374,2.335 -6.05,0 -11.856,-0.779 -17.42,-2.335 -5.564,-1.557 -10.771,-3.736 -15.621,-6.539 -4.851,-2.801 -9.258,-6.184 -13.224,-10.146 -3.967,-3.963 -7.376,-8.364 -10.229,-13.202 -2.853,-4.841 -5.05,-10.02 -6.59,-15.54 -1.541,-5.519 -2.311,-11.279 -2.311,-17.278 0,-6.001 0.77,-11.761 2.311,-17.279 1.54,-5.52 3.737,-10.671 6.59,-15.454 2.853,-4.784 6.262,-9.143 10.229,-13.076 3.966,-3.935 8.373,-7.317 13.224,-10.147 4.85,-2.831 10.057,-5.01 15.621,-6.537 5.564,-1.529 11.37,-2.293 17.42,-2.293 5.99,0 11.782,0.764 17.374,2.293 5.592,1.527 10.814,3.706 15.665,6.537 4.849,2.83 9.272,6.212 13.267,10.147 3.993,3.933 7.404,8.292 10.229,13.076 2.824,4.783 5.021,9.934 6.59,15.454 1.569,5.518 2.353,11.278 2.353,17.279 0,5.999 -0.784,11.759 -2.353,17.278 -1.569,5.52 -3.766,10.699 -6.59,15.54" /></g><g
           transform="translate(1026.8535,537.7347)"
           id="g509"><path
             id="path511"
             style="fill:#ffffff;fill-opacity:1;fill-rule:nonzero;stroke:none"
             d="m 0,0 h -3.936 v -3.738 -24.433 -47.634 c 0,-3.739 -0.556,-7.053 -1.671,-9.943 -1.115,-2.889 -2.629,-5.311 -4.543,-7.265 -1.914,-1.955 -4.143,-3.428 -6.685,-4.42 -2.543,-0.992 -5.242,-1.486 -8.1,-1.486 -2.743,0 -5.386,0.424 -7.928,1.274 -2.543,0.85 -4.773,2.195 -6.687,4.036 -1.914,1.841 -3.458,4.22 -4.628,7.139 -1.171,2.918 -1.757,6.473 -1.757,10.665 V -28.996 -3.738 0 h -4.094 -25.596 -3.413 v -3.736 -25.26 -46.318 c 0,-9.738 1.468,-17.958 4.405,-24.666 2.937,-6.709 6.886,-12.143 11.848,-16.303 4.961,-4.16 10.72,-7.161 17.278,-9 6.558,-1.839 13.43,-2.76 20.615,-2.76 7.185,0 14.041,0.892 20.572,2.674 6.529,1.784 12.275,4.725 17.236,8.831 4.961,4.103 8.909,9.523 11.847,16.26 2.936,6.736 4.405,15.057 4.405,24.964 V -28.171 -3.736 0 h -4.191 z" /></g><g
           transform="translate(1665.9023,537.7347)"
           id="g513"><path
             id="path515"
             style="fill:#ffffff;fill-opacity:1;fill-rule:nonzero;stroke:none"
             d="m 0,0 h -15.015 -61.924 -15.1 -4.021 v -3.726 -21.08 -4.318 h 4.021 15.1 14.325 v -92.971 c 0,-0.29 0.03,-0.567 0.086,-0.834 v -3.161 h 3.924 25.083 4.095 v 11.93 h -0.085 v 85.036 H -15.015 0 4.105 v 4.318 21.08 V 0 Z" /></g><g
           transform="translate(1516.2119,482.6712)"
           id="g517"><path
             id="path519"
             style="fill:#ffffff;fill-opacity:1;fill-rule:nonzero;stroke:none"
             d="M 0,0 C -1.596,-0.935 -3.393,-1.516 -5.389,-1.741 -6.359,-1.855 -7.242,-1.939 -8.039,-1.996 -8.84,-2.053 -9.75,-2.08 -10.777,-2.08 h -15.739 v 31.161 h 11.805 c 1.652,0 3.178,-0.042 4.576,-0.128 1.397,-0.084 2.893,-0.183 4.49,-0.296 1.938,-0.284 3.706,-0.907 5.303,-1.868 C 1.254,25.825 2.623,24.637 3.764,23.223 4.904,21.808 5.787,20.25 6.416,18.552 7.043,16.854 7.357,15.156 7.357,13.458 7.357,11.646 7.07,9.877 6.502,8.15 5.932,6.424 5.104,4.867 4.021,3.481 2.938,2.093 1.596,0.934 0,0 m 42.103,-62.013 -21.658,40.488 c 3.078,1.754 5.914,3.864 8.51,6.326 2.594,2.463 4.834,5.208 6.715,8.236 1.883,3.027 3.35,6.283 4.406,9.765 1.055,3.48 1.582,7.146 1.582,10.995 0,5.66 -1.099,10.996 -3.293,16.006 -2.197,5.01 -5.205,9.383 -9.025,13.118 -3.82,3.736 -8.297,6.694 -13.43,8.873 -5.131,2.18 -10.635,3.27 -16.508,3.27 h -42.874 -12.383 -3.764 v -3.907 -25.472 -84.782 -8.279 -3.65 h 3.764 25.404 3.935 v 3.643 0.007 38.295 h 13.858 L 8.127,-67.885 c 10e-4,0 10e-4,0 0.002,-10e-4 l 1.684,-3.14 h 1.891 c 0.184,-0.001 0.363,0 0.528,0 h 29.34 5.518 z" /></g></g></g></g></svg>
