<?xml version="1.0" encoding="UTF-8" standalone="no"?>
<svg
   xmlns:dc="http://purl.org/dc/elements/1.1/"
   xmlns:cc="http://creativecommons.org/ns#"
   xmlns:rdf="http://www.w3.org/1999/02/22-rdf-syntax-ns#"
   xmlns:svg="http://www.w3.org/2000/svg"
   xmlns="http://www.w3.org/2000/svg"
   xmlns:sodipodi="http://sodipodi.sourceforge.net/DTD/sodipodi-0.dtd"
   xmlns:inkscape="http://www.inkscape.org/namespaces/inkscape"
   inkscape:version="1.0 (4035a4fb49, 2020-05-01)"
   sodipodi:docname="5.svg"
   viewBox="0 0 1537.1116 801.61719"
   height="801.61719"
   width="1537.1116"
   xml:space="preserve"
   id="svg361"
   version="1.1"><metadata
     id="metadata367"><rdf:RDF><cc:Work
         rdf:about=""><dc:format>image/svg+xml</dc:format><dc:type
           rdf:resource="http://purl.org/dc/dcmitype/StillImage" /><dc:title></dc:title></cc:Work></rdf:RDF></metadata><defs
     id="defs365"><clipPath
       id="clipPath379"
       clipPathUnits="userSpaceOnUse"><path
         id="path377"
         d="M 0,1080 H 1920 V 0 H 0 Z" /></clipPath></defs><sodipodi:namedview
     inkscape:current-layer="g369"
     inkscape:window-maximized="1"
     inkscape:window-y="-8"
     inkscape:window-x="-8"
     inkscape:cy="400.90517"
     inkscape:cx="768.55628"
     inkscape:zoom="0.39960937"
     fit-margin-bottom="0"
     fit-margin-right="0"
     fit-margin-left="0"
     fit-margin-top="0"
     showgrid="false"
     id="namedview363"
     inkscape:window-height="1377"
     inkscape:window-width="3440"
     inkscape:pageshadow="2"
     inkscape:pageopacity="0"
     guidetolerance="10"
     gridtolerance="10"
     objecttolerance="10"
     borderopacity="1"
     bordercolor="#666666"
     pagecolor="#ffffff" /><g
     transform="matrix(1.3333333,0,0,-1.3333333,-511.44372,1120.9052)"
     inkscape:label="ass-support_logo"
     inkscape:groupmode="layer"
     id="g369"><g
       id="g373"><g
         clip-path="url(#clipPath379)"
         id="g375"><g
           transform="translate(990.8173,662.9907)"
           id="g381"><path
             id="path383"
             style="fill:#ef7052;fill-opacity:1;fill-rule:nonzero;stroke:none"
             d="m 0,0 c -9.083,-5.207 -19.598,-8.199 -30.817,-8.199 v 61.75 L -158.15,-167.716 H -30.817 96.516 Z" /></g><g
           transform="translate(1022.0683,716.8599)"
           id="g385"><path
             id="path387"
             style="fill:#4eb6f4;fill-opacity:1;fill-rule:nonzero;stroke:none"
             d="m 0,0 c 0,34.279 -27.789,62.068 -62.068,62.068 v 61.751 c -34.28,0 -62.069,-27.789 -62.069,-62.069 0,-34.279 27.789,-62.068 62.069,-62.068 l 30.817,-53.551 C -12.585,-43.167 0,-23.06 0,0" /></g><g
           transform="translate(990.8173,662.9907)"
           id="g389"><path
             id="path391"
             style="fill:#000000;fill-opacity:1;fill-rule:nonzero;stroke:none"
             d="M 0,0 -30.817,53.551 V -8.199 C -19.598,-8.199 -9.083,-5.207 0,0" /></g><g
           transform="translate(603.9755,307.085)"
           id="g393"><path
             id="path395"
             style="fill:#ffffff;fill-opacity:1;fill-rule:nonzero;stroke:none"
             d="m 0,0 c -3.708,2.994 -8.113,5.588 -13.216,7.784 -5.104,2.195 -10.679,4.29 -16.722,6.287 -3.137,1.027 -5.889,1.981 -8.255,2.866 -2.368,0.883 -4.349,1.824 -5.945,2.822 -1.597,0.997 -2.795,2.081 -3.592,3.251 -0.8,1.168 -1.199,2.552 -1.199,4.148 0,1.596 0.371,2.951 1.113,4.064 0.74,1.111 1.739,2.009 2.994,2.694 1.254,0.684 2.708,1.183 4.362,1.497 1.653,0.313 3.422,0.47 5.304,0.47 1.824,0 3.62,-0.271 5.388,-0.813 1.767,-0.542 3.45,-1.226 5.047,-2.052 1.596,-0.828 3.093,-1.754 4.491,-2.781 1.396,-1.026 2.665,-2.024 3.806,-2.993 l 0.77,-0.684 c 0.648,-0.556 1.236,-1.017 1.791,-1.422 l 2.93,-2.254 4.422,4.728 0.007,0.007 11.208,11.943 c 0.133,0.142 0.252,0.278 0.372,0.416 l 3.773,4.025 -5.193,4.735 c -0.316,0.302 -0.648,0.607 -1.005,0.917 -1.312,1.14 -2.838,2.323 -4.576,3.55 -1.74,1.226 -3.579,2.408 -5.517,3.55 -4.62,2.565 -9.311,4.433 -14.072,5.602 -4.761,1.168 -9.737,1.753 -14.925,1.753 -6.901,0 -13.146,-0.839 -18.734,-2.521 -5.589,-1.682 -10.364,-4.06 -14.327,-7.136 -3.964,-3.077 -7.015,-6.78 -9.152,-11.11 -2.139,-4.331 -3.208,-9.147 -3.208,-14.445 0,-5.014 0.855,-9.558 2.566,-13.632 1.71,-4.074 4.276,-7.807 7.698,-11.197 3.421,-3.388 7.699,-6.465 12.831,-9.229 5.132,-2.765 11.119,-5.343 17.963,-7.735 1.539,-0.513 3.364,-1.154 5.474,-1.923 2.109,-0.77 4.135,-1.695 6.073,-2.778 1.939,-1.082 3.578,-2.322 4.919,-3.717 1.339,-1.396 2.01,-2.977 2.01,-4.743 0,-1.595 -0.243,-3.106 -0.727,-4.531 -0.485,-1.425 -1.298,-2.677 -2.438,-3.76 -1.141,-1.082 -2.695,-1.952 -4.661,-2.607 -1.968,-0.654 -4.406,-0.983 -7.314,-0.983 -3.137,0 -6.131,0.542 -8.981,1.625 -2.853,1.083 -5.732,2.595 -8.64,4.535 -1.939,1.31 -3.665,2.636 -5.175,3.977 -1.511,1.339 -2.752,2.408 -3.721,3.207 l -3.842,3.383 -21.006,-19.897 3.395,-3.444 c 0.024,-0.026 0.044,-0.051 0.069,-0.077 0.011,-0.011 0.02,-0.015 0.031,-0.024 l 0.305,-0.309 c 0.002,-0.004 0.004,-0.006 0.006,-0.01 0.004,-0.006 0.01,-0.007 0.015,-0.011 l 0.326,-0.331 0.257,-0.259 c 0.912,-0.973 2.153,-2.259 3.721,-3.86 1.568,-1.601 3.493,-3.231 5.774,-4.89 5.475,-3.947 11.376,-7.093 17.706,-9.438 6.33,-2.343 12.774,-3.515 19.332,-3.515 6.957,0 13.457,0.983 19.502,2.95 6.044,1.968 11.305,4.748 15.783,8.341 4.476,3.591 7.998,7.939 10.564,13.044 2.566,5.103 3.849,10.791 3.849,17.065 0,5.93 -1.041,10.977 -3.122,15.14 C 6.6,-6.573 3.706,-2.994 0,0" /></g><g
           transform="translate(446.9218,288.4209)"
           id="g397"><path
             id="path399"
             style="fill:#ffffff;fill-opacity:1;fill-rule:nonzero;stroke:none"
             d="m 0,0 h -13.183 c 1.083,2.908 2.181,6.031 3.293,9.367 1.113,3.336 2.21,6.714 3.294,10.136 1.082,3.421 2.181,6.813 3.293,10.179 1.112,3.364 2.209,6.501 3.293,9.409 L 0,39.061 0.01,39.091 C 1.094,36.183 2.191,33.046 3.303,29.682 4.415,26.316 5.514,22.924 6.596,19.503 7.68,16.081 8.777,12.703 9.89,9.367 11.002,6.031 12.1,2.908 13.183,0 Z m 62.041,-44.619 c -0.007,0.018 -0.008,0.034 -0.016,0.054 L 16.74,72.692 h 0.008 l -0.938,2.411 -0.232,0.598 c -10e-4,0 -0.002,0.001 -0.003,0.002 l -1.299,3.334 H 10.959 6.388 0 h -6.387 -4.572 -3.317 l -1.299,-3.334 c -0.001,-0.001 -0.001,-0.002 -0.003,-0.002 l -0.231,-0.598 -0.939,-2.411 h 0.009 L -62.025,-44.565 c -0.007,-0.02 -0.008,-0.036 -0.016,-0.054 l -1.298,-3.367 h 4.394 25.233 3.149 l 1.104,2.901 c 0.035,0.089 0.077,0.169 0.109,0.263 1.083,2.908 2.182,5.802 3.293,8.682 1.113,2.879 2.21,5.775 3.293,8.683 H 0 22.764 c 1.083,-2.908 2.18,-5.804 3.293,-8.683 1.111,-2.88 2.21,-5.774 3.293,-8.682 0.033,-0.094 0.075,-0.174 0.11,-0.263 l 1.104,-2.901 h 3.148 25.233 4.395 z" /></g><g
           transform="translate(662.0244,312.7725)"
           id="g401"><path
             id="path403"
             style="fill:#4eb6f4;fill-opacity:1;fill-rule:nonzero;stroke:none"
             d="M 0,0 C -2.543,0 -4.919,-0.691 -6.971,-1.881 -2.808,-4.292 0,-8.784 0,-13.942 c 0,-5.158 -2.808,-9.65 -6.971,-12.062 2.052,-1.188 4.428,-1.88 6.971,-1.88 7.7,0 13.941,6.242 13.941,13.942 C 13.941,-6.242 7.7,0 0,0" /></g><g
           transform="translate(648.082,298.8301)"
           id="g405"><path
             id="path407"
             style="fill:#ef7052;fill-opacity:1;fill-rule:nonzero;stroke:none"
             d="M 0,0 C 0,5.158 2.809,9.65 6.972,12.062 4.919,13.251 2.543,13.942 0,13.942 -7.699,13.942 -13.941,7.7 -13.941,0 c 0,-7.699 6.242,-13.941 13.941,-13.941 2.543,0 4.919,0.691 6.972,1.879 C 2.809,-9.649 0,-5.157 0,0" /></g><g
           transform="translate(662.0244,298.8301)"
           id="g409"><path
             id="path411"
             style="fill:#000000;fill-opacity:1;fill-rule:nonzero;stroke:none"
             d="M 0,0 C 0,5.158 -2.808,9.65 -6.971,12.062 -11.134,9.65 -13.942,5.158 -13.942,0 c 0,-5.157 2.808,-9.649 6.971,-12.062 C -2.808,-9.649 0,-5.157 0,0" /></g><g
           transform="translate(782.4072,307.084)"
           id="g413"><path
             id="path415"
             style="fill:#ffffff;fill-opacity:1;fill-rule:nonzero;stroke:none"
             d="m 0,0 c -3.708,2.994 -8.113,5.588 -13.216,7.784 -5.104,2.195 -10.679,4.29 -16.722,6.287 -3.137,1.027 -5.889,1.981 -8.255,2.866 -2.368,0.883 -4.349,1.824 -5.945,2.822 -1.597,0.997 -2.795,2.081 -3.592,3.251 -0.8,1.168 -1.199,2.552 -1.199,4.148 0,1.596 0.371,2.951 1.113,4.064 0.74,1.111 1.739,2.009 2.994,2.694 1.254,0.684 2.708,1.183 4.362,1.497 1.653,0.313 3.422,0.47 5.304,0.47 1.824,0 3.62,-0.271 5.388,-0.813 1.767,-0.542 3.45,-1.226 5.047,-2.052 1.596,-0.828 3.093,-1.754 4.491,-2.781 1.396,-1.026 2.665,-2.024 3.806,-2.993 l 0.77,-0.684 c 0.647,-0.556 1.236,-1.017 1.791,-1.422 l 2.93,-2.254 4.422,4.728 0.006,0.007 11.209,11.943 c 0.133,0.142 0.252,0.278 0.372,0.416 l 3.773,4.025 -5.193,4.735 c -0.316,0.302 -0.648,0.607 -1.005,0.917 -1.312,1.14 -2.838,2.323 -4.576,3.55 -1.74,1.226 -3.579,2.408 -5.517,3.55 -4.62,2.565 -9.311,4.433 -14.072,5.602 -4.761,1.168 -9.737,1.753 -14.925,1.753 -6.901,0 -13.146,-0.839 -18.734,-2.521 -5.589,-1.682 -10.364,-4.06 -14.327,-7.136 -3.964,-3.077 -7.015,-6.78 -9.152,-11.11 -2.139,-4.331 -3.208,-9.147 -3.208,-14.445 0,-5.014 0.855,-9.558 2.566,-13.632 1.71,-4.074 4.276,-7.807 7.698,-11.197 3.421,-3.388 7.699,-6.465 12.831,-9.229 5.132,-2.765 11.119,-5.343 17.963,-7.735 1.539,-0.513 3.364,-1.154 5.474,-1.923 2.109,-0.77 4.135,-1.695 6.073,-2.778 1.939,-1.082 3.578,-2.322 4.919,-3.717 1.339,-1.396 2.01,-2.977 2.01,-4.743 0,-1.595 -0.243,-3.106 -0.727,-4.531 -0.485,-1.425 -1.298,-2.677 -2.438,-3.76 -1.141,-1.082 -2.695,-1.952 -4.661,-2.607 -1.968,-0.654 -4.406,-0.983 -7.314,-0.983 -3.137,0 -6.131,0.542 -8.981,1.625 -2.853,1.083 -5.732,2.595 -8.64,4.535 -1.939,1.31 -3.665,2.636 -5.175,3.977 -1.511,1.339 -2.752,2.408 -3.721,3.207 l -3.842,3.383 -21.007,-19.897 3.395,-3.444 c 0.025,-0.026 0.045,-0.051 0.07,-0.077 0.01,-0.011 0.02,-0.015 0.031,-0.024 l 0.305,-0.309 c 0.002,-0.004 0.004,-0.006 0.006,-0.01 0.004,-0.005 0.009,-0.007 0.014,-0.011 l 0.327,-0.331 0.257,-0.259 c 0.912,-0.973 2.153,-2.259 3.721,-3.86 1.568,-1.601 3.493,-3.231 5.774,-4.89 5.475,-3.947 11.376,-7.093 17.706,-9.438 6.33,-2.343 12.774,-3.515 19.332,-3.515 6.957,0 13.457,0.983 19.502,2.95 6.044,1.968 11.305,4.748 15.783,8.341 4.476,3.591 7.998,7.939 10.564,13.044 2.566,5.103 3.849,10.791 3.849,17.065 0,5.93 -1.041,10.977 -3.122,15.14 C 6.6,-6.573 3.706,-2.994 0,0" /></g><g
           transform="translate(1009.123,321.7539)"
           id="g417"><path
             id="path419"
             style="fill:#ffffff;fill-opacity:1;fill-rule:nonzero;stroke:none"
             d="m 0,0 c -0.599,-1.711 -1.454,-3.223 -2.566,-4.534 -1.112,-1.313 -2.496,-2.381 -4.149,-3.207 -1.654,-0.827 -3.507,-1.24 -5.559,-1.24 h -18.135 v 28.569 h 18.135 c 2.052,0 3.891,-0.428 5.516,-1.283 1.626,-0.856 3.008,-1.954 4.15,-3.293 C -1.469,13.671 -0.599,12.146 0,10.436 0.599,8.725 0.898,7.014 0.898,5.303 0.898,3.478 0.599,1.711 0,0 m 29.425,25.148 c -1.625,3.08 -3.607,5.945 -5.944,8.596 -2.339,2.652 -4.961,4.933 -7.871,6.844 -2.908,1.909 -6.102,3.406 -9.58,4.49 -3.478,1.083 -7.184,1.626 -11.12,1.626 h -36.831 -17.827 -3.764 v -3.935 -14.302 -96.77 -8.34 -3.677 h 3.764 25.404 3.935 v 3.677 8.34 32.377 H -4.49 c 5.816,0.056 11.119,1.268 15.909,3.635 4.791,2.366 8.896,5.46 12.318,9.281 3.421,3.82 6.059,8.182 7.912,13.087 1.853,4.904 2.78,9.923 2.78,15.055 0,3.477 -0.427,6.914 -1.282,10.307 -0.856,3.393 -2.096,6.629 -3.722,9.709" /></g><g
           transform="translate(1124,321.7539)"
           id="g421"><path
             id="path423"
             style="fill:#ffffff;fill-opacity:1;fill-rule:nonzero;stroke:none"
             d="m 0,0 c -0.6,-1.711 -1.454,-3.223 -2.566,-4.534 -1.113,-1.313 -2.496,-2.381 -4.149,-3.207 -1.655,-0.827 -3.508,-1.24 -5.56,-1.24 h -18.134 v 28.569 h 18.134 c 2.052,0 3.892,-0.428 5.517,-1.283 1.625,-0.856 3.007,-1.954 4.149,-3.293 C -1.47,13.671 -0.6,12.146 0,10.436 0.599,8.725 0.897,7.014 0.897,5.303 0.897,3.478 0.599,1.711 0,0 m 29.425,25.148 c -1.625,3.08 -3.608,5.945 -5.946,8.596 -2.338,2.652 -4.96,4.933 -7.869,6.844 -2.908,1.909 -6.102,3.406 -9.58,4.49 -3.479,1.083 -7.185,1.626 -11.12,1.626 h -36.832 -17.827 -3.764 v -3.935 -14.302 -96.77 -8.34 -3.677 h 3.764 25.405 3.935 v 3.671 0.006 40.717 h 25.918 c 5.816,0.056 11.12,1.268 15.91,3.635 4.79,2.366 8.895,5.46 12.317,9.281 3.422,3.82 6.059,8.182 7.912,13.087 1.853,4.904 2.781,9.923 2.781,15.055 0,3.477 -0.428,6.914 -1.283,10.307 -0.856,3.393 -2.096,6.629 -3.721,9.709" /></g><g
           transform="translate(1266.4648,291.6445)"
           id="g425"><path
             id="path427"
             style="fill:#ffffff;fill-opacity:1;fill-rule:nonzero;stroke:none"
             d="m 0,0 c -1.595,-4.106 -3.829,-7.686 -6.705,-10.735 -2.877,-3.052 -6.294,-5.447 -10.252,-7.186 -3.958,-1.74 -8.301,-2.608 -13.026,-2.608 -4.728,0 -9.056,0.868 -12.986,2.608 -3.928,1.739 -7.332,4.134 -10.208,7.186 -2.876,3.049 -5.112,6.629 -6.707,10.735 -1.594,4.105 -2.39,8.524 -2.39,13.258 0,4.676 0.796,9.081 2.39,13.216 1.595,4.133 3.831,7.741 6.707,10.82 2.876,3.08 6.28,5.503 10.208,7.271 3.93,1.767 8.258,2.652 12.986,2.652 4.725,0 9.068,-0.885 13.026,-2.652 3.958,-1.768 7.375,-4.191 10.252,-7.271 C -3.829,34.215 -1.595,30.607 0,26.474 1.595,22.339 2.393,17.934 2.393,13.258 2.393,8.524 1.595,4.105 0,0 m 26.552,46.233 c -2.825,4.875 -6.236,9.309 -10.229,13.301 -3.995,3.991 -8.418,7.4 -13.267,10.222 -4.851,2.823 -10.073,5.017 -15.665,6.587 -5.592,1.567 -11.384,2.352 -17.374,2.352 -6.05,0 -11.856,-0.785 -17.42,-2.352 -5.564,-1.57 -10.771,-3.764 -15.621,-6.587 -4.851,-2.822 -9.258,-6.231 -13.224,-10.222 -3.967,-3.992 -7.376,-8.426 -10.229,-13.301 -2.853,-4.876 -5.05,-10.093 -6.59,-15.653 -1.541,-5.56 -2.311,-11.363 -2.311,-17.407 0,-6.045 0.77,-11.848 2.311,-17.407 1.54,-5.56 3.737,-10.75 6.59,-15.569 2.853,-4.819 6.262,-9.21 10.229,-13.173 3.966,-3.963 8.373,-7.371 13.224,-10.221 4.85,-2.852 10.057,-5.047 15.621,-6.586 5.564,-1.54 11.37,-2.31 17.42,-2.31 5.99,0 11.782,0.77 17.374,2.31 5.592,1.539 10.814,3.734 15.665,6.586 4.849,2.85 9.272,6.258 13.267,10.221 3.993,3.963 7.404,8.354 10.229,13.173 2.824,4.819 5.021,10.009 6.59,15.569 1.569,5.559 2.353,11.362 2.353,17.407 0,6.044 -0.784,11.847 -2.353,17.407 -1.569,5.56 -3.766,10.777 -6.59,15.653" /></g><g
           transform="translate(893.2626,368.458)"
           id="g429"><path
             id="path431"
             style="fill:#ffffff;fill-opacity:1;fill-rule:nonzero;stroke:none"
             d="M 0,0 H -3.936 V -3.767 -28.38 -76.366 c 0,-3.768 -0.556,-7.107 -1.671,-10.018 -1.115,-2.91 -2.629,-5.349 -4.543,-7.318 -1.913,-1.97 -4.143,-3.454 -6.685,-4.452 -2.543,-1 -5.242,-1.498 -8.1,-1.498 -2.743,0 -5.386,0.427 -7.928,1.284 -2.543,0.855 -4.773,2.211 -6.687,4.065 -1.914,1.856 -3.458,4.252 -4.628,7.193 -1.171,2.939 -1.757,6.52 -1.757,10.744 V -29.211 -3.767 0 h -4.094 -25.596 -3.413 v -3.765 -25.446 -46.662 c 0,-9.809 1.468,-18.091 4.405,-24.849 2.937,-6.757 6.886,-12.232 11.848,-16.423 4.961,-4.191 10.72,-7.214 17.278,-9.067 6.558,-1.852 13.43,-2.78 20.615,-2.78 7.185,0 14.041,0.898 20.572,2.694 6.529,1.797 12.275,4.761 17.236,8.897 4.961,4.133 8.909,9.593 11.847,16.38 2.936,6.786 4.405,15.168 4.405,25.148 V -28.38 -3.765 0 h -4.191 z" /></g><g
           transform="translate(1532.3115,368.458)"
           id="g433"><path
             id="path435"
             style="fill:#ffffff;fill-opacity:1;fill-rule:nonzero;stroke:none"
             d="m 0,0 h -15.015 -61.924 -15.1 -4.021 v -3.754 -21.235 -4.351 h 4.021 15.1 14.325 V -123 c 0,-0.292 0.03,-0.571 0.086,-0.84 v -3.184 h 3.924 25.083 4.095 v 12.017 h -0.085 V -29.34 H -15.015 0 4.105 V -24.989 -3.754 0 Z" /></g><g
           transform="translate(1382.6211,312.9863)"
           id="g437"><path
             id="path439"
             style="fill:#ffffff;fill-opacity:1;fill-rule:nonzero;stroke:none"
             d="m 0,0 c -1.596,-0.941 -3.393,-1.526 -5.389,-1.754 -0.97,-0.115 -1.853,-0.2 -2.65,-0.257 -0.801,-0.057 -1.711,-0.085 -2.738,-0.085 h -15.739 v 31.393 h 11.805 c 1.652,0 3.178,-0.043 4.576,-0.129 1.397,-0.085 2.893,-0.186 4.49,-0.299 1.938,-0.286 3.706,-0.913 5.303,-1.882 1.596,-0.97 2.965,-2.168 4.106,-3.592 1.14,-1.426 2.023,-2.995 2.652,-4.706 0.627,-1.71 0.941,-3.42 0.941,-5.131 C 7.357,11.731 7.07,9.95 6.502,8.211 5.932,6.472 5.104,4.903 4.021,3.507 2.938,2.108 1.596,0.94 0,0 m 42.103,-62.473 -21.658,40.788 c 3.078,1.768 5.914,3.893 8.51,6.373 2.594,2.481 4.834,5.247 6.715,8.297 1.883,3.05 3.35,6.33 4.406,9.837 1.055,3.507 1.582,7.199 1.582,11.077 0,5.703 -1.099,11.078 -3.293,16.124 -2.197,5.047 -5.205,9.453 -9.025,13.216 -3.82,3.764 -8.297,6.743 -13.43,8.939 -5.131,2.195 -10.635,3.294 -16.508,3.294 h -42.874 -12.383 -3.764 v -3.936 -25.661 -85.41 -8.34 -3.678 h 3.764 25.404 3.935 v 3.671 0.007 38.578 h 13.858 L 8.127,-68.388 c 10e-4,0 10e-4,-10e-4 0.002,-10e-4 l 1.684,-3.164 h 1.891 c 0.184,-0.001 0.363,0 0.528,0 h 29.34 5.518 z" /></g></g></g></g></svg>
